<svg xmlns="http://www.w3.org/2000/svg" viewBox="0 0 142.92 15.84" width="142.92" height="15.84"><defs><style>.cls-1{fill:#5e5f61;}.cls-2{fill:#e21b23;}</style></defs><title>Asset 1</title><g id="Layer_2" data-name="Layer 2"><g id="Layer_1-2" data-name="Layer 1"><path class="cls-1" d="M6.72,6.84c-2.64-.6-3.84-1-3.84-2.28S4.08,2.4,6.24,2.4a4.54,4.54,0,0,1,4,2l.12.12h.24c.24,0,1.32-.48,1.32-1.32,0-1.32-2-3.12-5.64-3.12S.48,2,.48,4.8c0,3.12,3,3.84,5.28,4.32,2.64.6,4,1,4,2.4S8.4,13.68,6.24,13.68A5.29,5.29,0,0,1,1.56,11.4l-.12-.12H1.32A1.53,1.53,0,0,0,0,12.72C0,14,2.4,15.84,6.24,15.84c3.6,0,6-1.8,6-4.68C12.24,8,9,7.32,6.72,6.84"/><path class="cls-1" d="M20.76.12A7.61,7.61,0,0,0,13.2,8c0,4.68,3.12,7.8,7.68,7.8,4,0,6.36-2.16,6.36-3.48A1.39,1.39,0,0,0,25.92,11c-.12,0-.24,0-.24.12a5.07,5.07,0,0,1-4.8,2.4,5,5,0,0,1-5.16-4.68H26.64c.48,0,1.08-.12,1.08-1V7.68c0-4.44-2.76-7.56-7-7.56m0,2.28a4.27,4.27,0,0,1,4.32,4.2H15.84A4.91,4.91,0,0,1,20.76,2.4Z"/><path class="cls-1" d="M35,.24a4.08,4.08,0,0,0-3.6,2c-.12-1.2-.6-1.8-1.56-1.8-.24,0-.84.12-.84.6V14.52c0,.84.36,1.2,1.08,1.2h.24a1.08,1.08,0,0,0,1.2-1.2V8.88c0-2.76.48-6.12,3.24-6.12a2,2,0,0,1,1.56.48l.12.12h.12c.36,0,.84-.6.84-1.32,0-1.08-1-1.8-2.4-1.8"/><path class="cls-1" d="M51,.36c-.84,0-1.32.48-1.68,1.68L45.24,12.6,41.16,2C40.68.72,40.32.36,39.48.36A1.32,1.32,0,0,0,38.4.84c-.12.12-.24.24-.12.48l5.28,13.44c.36.72.48,1,1.56,1s1.44-.36,1.8-1L52.2,1.32A.44.44,0,0,0,52.08,1,1.5,1.5,0,0,0,51,.36"/><path class="cls-1" d="M54.6.36h-.24a1.17,1.17,0,0,0-1.2,1.32V14.4a1.08,1.08,0,0,0,1.2,1.2h.24c.72,0,1.08-.36,1.08-1.2V1.68c0-.84-.36-1.32-1.08-1.32"/><path class="cls-1" d="M64.56,2.52a4.54,4.54,0,0,1,4.56,3c.12.12.24.12.48.12.48,0,1.44-.36,1.44-1.2C71,2.88,68.88.12,64.56.12A7.67,7.67,0,0,0,56.76,8a7.64,7.64,0,0,0,7.8,7.8c4.32,0,6.48-2.64,6.48-4.2a1.41,1.41,0,0,0-1.44-1.32.62.62,0,0,0-.48.24,4.54,4.54,0,0,1-4.56,3c-3,0-5.16-2.28-5.16-5.52s2.16-5.52,5.16-5.52"/><path class="cls-1" d="M79.56.12A7.61,7.61,0,0,0,72,8c0,4.68,3.12,7.8,7.68,7.8,4,0,6.36-2.16,6.36-3.48A1.39,1.39,0,0,0,84.72,11c-.12,0-.24,0-.24.12a5.48,5.48,0,0,1-10-2.28H85.44c.6,0,1.08-.12,1.08-1V7.68c0-4.44-2.76-7.56-7-7.56m0,2.28a4.27,4.27,0,0,1,4.32,4.2H74.64A4.91,4.91,0,0,1,79.56,2.4Z"/><path class="cls-2" d="M96,.36a5.75,5.75,0,0,0-4.56,2.16A2.11,2.11,0,0,0,89.28.6C88.92.6,88,.84,88,1.2v13a1.49,1.49,0,0,0,1.56,1.68h.36a1.52,1.52,0,0,0,1.68-1.68V5.88A4,4,0,0,1,95.28,3.6c1.92,0,3,1.32,3,3.6v7a1.49,1.49,0,0,0,1.56,1.68h.36a1.52,1.52,0,0,0,1.68-1.68V6.84C101.88,2.76,99.6.36,96,.36"/><path class="cls-2" d="M139.32,1.44a2.33,2.33,0,0,0-1.8-.84c-.36,0-1.56.12-1.8,1.8l-2,8.88L131.4,3.72c-.24-.84-1-1.2-2.16-1.2s-1.8.36-2,1.2l-2.4,7.68-2-9C122.4.72,121.32.6,121,.6a3.21,3.21,0,0,0-2,.84c-.12.12,0,.24,0,.36l3.6,12.84c.24,1.08,1.08,1.2,2,1.2,1.2,0,1.8-.36,2-1.2l2.64-7.92,2.52,7.92c.36,1,.72,1.2,2,1.2,1,0,1.8-.12,2.16-1.2L139.44,1.8c.12-.24,0-.36-.12-.36"/><path class="cls-2" d="M117.84,4.44a3.59,3.59,0,0,0-.48-1,2.8,2.8,0,0,0-.84-.84c-1.08-.6-2.16.36-2.52,1a.55.55,0,0,0,0,.6c.12.24.36.6.48.84s.24.36.36.48A5.57,5.57,0,0,1,115.32,8c0,2.76-1.8,4.8-4.44,4.8a4.58,4.58,0,0,1-4.56-4.92,5.46,5.46,0,0,1,.6-2.4,2.51,2.51,0,0,1,.48-.72,2.62,2.62,0,0,1,.36-.6.55.55,0,0,0,0-.6c-.36-.6-1.44-1.56-2.52-1a2.35,2.35,0,0,0-1.08,1.08l-.36.72a7.83,7.83,0,0,0-.72,3.48c0,4.68,3.12,7.92,7.8,7.92a7.5,7.5,0,0,0,7.8-7.8,7.25,7.25,0,0,0-.84-3.6"/><path class="cls-2" d="M111,0h-.24c-1,0-1.44.72-1.44,1.92V8q0,1.8,1.44,1.8H111q1.44,0,1.44-1.8V1.92C112.44.72,112,0,111,0"/><path class="cls-2" d="M140.52,1.44c0-.12.12-.24.24-.36s.24-.24.36-.24a.91.91,0,0,1,.48-.12,1.08,1.08,0,0,1,.6.12c.12,0,.24.12.36.24s.24.24.24.36a.72.72,0,0,1,.12.48,1.08,1.08,0,0,1-.12.6c0,.12-.12.24-.24.36s-.24.24-.36.24-.36.12-.6.12-.24-.12-.48-.12-.24-.12-.36-.24-.24-.24-.24-.36a1.08,1.08,0,0,1-.12-.6.72.72,0,0,1,.12-.48m.24,1,.24.24c.12.12.12.24.24.24s.24.12.36.12.36-.12.48-.12l.24-.24.24-.24V1.56c-.12-.12-.12-.24-.24-.24l-.24-.24C142,1,141.84,1,141.6,1a.44.44,0,0,0-.36.12c-.12,0-.12.12-.24.24s-.12.12-.24.24V2.4Zm1-1.08h.36a.44.44,0,0,1,.12.36V1.8c0,.12,0,.12-.12.12s0,.12-.12.12h-.12l.36.6H142L141.6,2h-.12v.6h-.36V1.32Zm0,.48h.12c.12,0,.12,0,.12-.12V1.56h-.12a.12.12,0,0,0-.12-.12h-.24V1.8Z"/></g></g></svg>
